<svg width="109" height="111" viewBox="0 0 109 111" fill="none" xmlns="http://www.w3.org/2000/svg">
<rect x="21" y="20" width="67" height="68" fill="#F5F07E"/>
<g clip-path="url(#clip0_3_6)">
<path d="M47.6208 71.429C36.1788 74.7144 36.2227 65.8033 31.658 64.6669M63.5836 78.1911L63.6261 69.5696C63.717 68.5078 63.5751 67.4391 63.2097 66.4348C62.8442 65.4304 62.2637 64.5134 61.5067 63.7446C68.6858 63.0002 76.2397 60.3863 76.2996 48.2227C76.3144 45.1123 75.1019 42.1152 72.9131 39.8516C73.9682 37.1356 73.9094 34.1273 72.7488 31.4519C72.7488 31.4519 70.0563 30.6589 63.7978 34.705C58.5672 33.2954 53.0464 33.2682 47.8021 34.6262C41.5839 30.5186 38.8836 31.2851 38.8836 31.2851C37.6968 33.9489 37.6083 36.9564 38.6366 39.6828C36.4091 41.9413 35.1658 44.9533 35.1674 48.0869C35.1079 60.1614 42.6357 62.8496 49.8067 63.7538C49.0511 64.5074 48.4669 65.4078 48.0919 66.3962C47.7169 67.3847 47.5597 68.4391 47.6304 69.4908L47.5879 78.1123" stroke="#1E1E1E" stroke-width="3" stroke-linecap="round" stroke-linejoin="round"/>
</g>
<g filter="url(#filter0_d_3_6)">
<ellipse cx="54.6323" cy="21.9723" rx="1.61449" ry="0.941434" transform="rotate(1.10125 54.6323 21.9723)" fill="#7F7878"/>
</g>
<g filter="url(#filter1_d_3_6)">
<path d="M53 14.204L54.8867 14.0137L55.0765 21.8968L54.3554 21.9777L53 14.204Z" fill="#D9D9D9"/>
</g>
<g filter="url(#filter2_d_3_6)">
<circle cx="54" cy="14" r="4" fill="#ED2E2E"/>
<circle cx="54" cy="14" r="3.85" stroke="black" stroke-width="0.3"/>
</g>
<defs>
<filter id="filter0_d_3_6" x="49.018" y="21.0305" width="11.2286" height="9.88356" filterUnits="userSpaceOnUse" color-interpolation-filters="sRGB">
<feFlood flood-opacity="0" result="BackgroundImageFix"/>
<feColorMatrix in="SourceAlpha" type="matrix" values="0 0 0 0 0 0 0 0 0 0 0 0 0 0 0 0 0 0 127 0" result="hardAlpha"/>
<feOffset dy="4"/>
<feGaussianBlur stdDeviation="2"/>
<feComposite in2="hardAlpha" operator="out"/>
<feColorMatrix type="matrix" values="0 0 0 0 0 0 0 0 0 0 0 0 0 0 0 0 0 0 0.25 0"/>
<feBlend mode="normal" in2="BackgroundImageFix" result="effect1_dropShadow_3_6"/>
<feBlend mode="normal" in="SourceGraphic" in2="effect1_dropShadow_3_6" result="shape"/>
</filter>
<filter id="filter1_d_3_6" x="49" y="14.0137" width="10.0765" height="15.964" filterUnits="userSpaceOnUse" color-interpolation-filters="sRGB">
<feFlood flood-opacity="0" result="BackgroundImageFix"/>
<feColorMatrix in="SourceAlpha" type="matrix" values="0 0 0 0 0 0 0 0 0 0 0 0 0 0 0 0 0 0 127 0" result="hardAlpha"/>
<feOffset dy="4"/>
<feGaussianBlur stdDeviation="2"/>
<feComposite in2="hardAlpha" operator="out"/>
<feColorMatrix type="matrix" values="0 0 0 0 0 0 0 0 0 0 0 0 0 0 0 0 0 0 0.25 0"/>
<feBlend mode="normal" in2="BackgroundImageFix" result="effect1_dropShadow_3_6"/>
<feBlend mode="normal" in="SourceGraphic" in2="effect1_dropShadow_3_6" result="shape"/>
</filter>
<filter id="filter2_d_3_6" x="46" y="10" width="16" height="16" filterUnits="userSpaceOnUse" color-interpolation-filters="sRGB">
<feFlood flood-opacity="0" result="BackgroundImageFix"/>
<feColorMatrix in="SourceAlpha" type="matrix" values="0 0 0 0 0 0 0 0 0 0 0 0 0 0 0 0 0 0 127 0" result="hardAlpha"/>
<feOffset dy="4"/>
<feGaussianBlur stdDeviation="2"/>
<feComposite in2="hardAlpha" operator="out"/>
<feColorMatrix type="matrix" values="0 0 0 0 0 0 0 0 0 0 0 0 0 0 0 0 0 0 0.25 0"/>
<feBlend mode="normal" in2="BackgroundImageFix" result="effect1_dropShadow_3_6"/>
<feBlend mode="normal" in="SourceGraphic" in2="effect1_dropShadow_3_6" result="shape"/>
</filter>
<clipPath id="clip0_3_6">
<rect width="54.8431" height="53.4672" fill="white" transform="translate(27.2634 29) rotate(0.282277)"/>
</clipPath>
</defs>
</svg>
